General

Complete name                    : Harry Potter And The Deathly Hallows 7 Part-1 (2010) BRRip 720p [6Ch] [Hindi] BY [-=R@J=-].mkv
Format                           : Matroska
File size                        : 1.13 GiB
Duration                         : 2h 26mn
Overall bit rate                 : 1 108 Kbps
Movie name                       : 720p BY !-=[-=R@J=-]=-!
Writing application              : mkvmerge v4.7.0 ('Just Like You Imagined') 
Writing library                  : libebml v1.2.0 + libmatroska v1.1.0

Video
ID                               : 1
Format                           : AVC
Format/Info                      : Advanced Video Codec
Format profile                   : High@L4.1
Format settings, CABAC           : Yes
Format settings, ReFrames        : 5 frames
Muxing mode                      : Header stripping
Codec ID                         : V_MPEG4/ISO/AVC
Duration                         : 2h 26mn
Bit rate                         : 702 Kbps
Nominal bit rate                 : 765 Kbps
Width                            : 1 280 pixels
Height                           : 528 pixels
Display aspect ratio             : 2.40:1
Frame rate                       : 23.976 fps
Color space                      : YUV
Chroma subsampling               : 4:2:0
Bit depth                        : 8 bits
Scan type                        : Progressive
Bits/(Pixel*Frame)               : 0.043
Stream size                      : 734 MiB (63%)
Title                            : 720p BY !-=[-=R@J=-]=-!
Writing library                  : x264 core 60 r900 a9af942
Encoding settings                : cabac=1 / ref=5 / deblock=1:1:2 / analyse=0x3:0x133 / me=umh / subme=7 / brdo=1 / mixed_ref=1 / me_range=32 / chroma_me=1 / trellis=2 / 8x8dct=1 / cqm=0 / deadzone=21,11 / chroma_qp_offset=0 / threads=3 / nr=0 / decimate=1 / mbaff=0 / bframes=3 / b_pyramid=1 / b_adapt=1 / b_bias=0 / direct=3 / wpredb=1 / bime=1 / keyint=250 / keyint_min=25 / scenecut=45(pre) / rc=2pass / bitrate=765 / ratetol=1.0 / rceq='blurCplx^(1-qComp)' / qcomp=0.60 / qpmin=10 / qpmax=51 / qpstep=4 / cplxblur=20.0 / qblur=0.5 / vbv_maxrate=50000 / vbv_bufsize=50000 / ip_ratio=1.40 / pb_ratio=1.30 / aq=0

Audio
ID                               : 2
Format                           : AC-3
Format/Info                      : Audio Coding 3
Mode extension                   : CM (complete main)
Muxing mode                      : Header stripping
Codec ID                         : A_AC3
Duration                         : 2h 26mn
Bit rate mode                    : Constant
Bit rate                         : 384 Kbps
Channel(s)                       : 6 channels
Channel positions                : Front: L C R, Side: L R, LFE
Sampling rate                    : 48.0 KHz
Bit depth                        : 16 bits
Compression mode                 : Lossy
Stream size                      : 401 MiB (35%)
Title                            : 720p BY !-=[-=R@J=-]=-!
Language                         : Hindi

